<svg xmlns="http://www.w3.org/2000/svg" viewBox="0 0 64 64"><rect width="64" height="64" rx="15" fill="#2C4636"/><g transform="translate(-0.13 8.93) scale(0.3205)" fill="none" stroke-linecap="round" stroke-linejoin="round"><g stroke="#E3B26B" stroke-width="4.2"><path d="M131.6 42.6L125.9 37.8M143.8 34.8L141.8 27.6M157.2 35.1L159.8 28.1M168.5 44.1L174.4 39.4M174.6 58L182 58M169.7 71.8L175.8 76.1"/></g>
<circle cx="150" cy="58" r="16" fill="#E3B26B"/>
<g fill="#86A57F"><circle cx="48" cy="40" r="15"/><circle cx="35" cy="54" r="15"/><circle cx="61" cy="54" r="15"/><circle cx="48" cy="56" r="17"/><circle cx="39" cy="70" r="12"/><circle cx="57" cy="70" r="12"/></g>
<path d="M44.2 119C46 104 46.9 90 47 72H49C49.1 90 50 104 51.8 119Z" fill="#C9A27E" stroke="#C9A27E" stroke-width="1.6"/>
<g stroke="#C9A27E"><path d="M48 74V51" stroke-width="3"/><path d="M47.6 89L37.5 77M38 77.4L33.5 77" stroke-width="2.8"/><path d="M48.4 83L58.5 71M54.6 75.6L56.8 67" stroke-width="2.6"/></g>
<rect x="87" y="49" width="10" height="20" rx="2.5" fill="#F6F1E8"/>
<path d="M82 116V68.5L108 46.6L134 68.5V116Z" fill="#2C4636"/>
<path d="M69 79L108 46.2L147 79" stroke="#F6F1E8" stroke-width="7.5"/>
<path d="M82.5 69V112.5M133.5 69V112.5" stroke="#F6F1E8" stroke-width="7"/>
<g fill="#E3B26B"><rect x="100.5" y="64.5" width="7" height="7" rx="1.6"/><rect x="108.5" y="64.5" width="7" height="7" rx="1.6"/><rect x="100.5" y="72.5" width="7" height="7" rx="1.6"/><rect x="108.5" y="72.5" width="7" height="7" rx="1.6"/><path d="M99.5 115V97.5a8.5 8.5 0 0 1 17 0V115Z"/></g>
<circle cx="112.3" cy="106" r="1.6" fill="#F6F1E8"/>
<path d="M19 122Q100 107.5 181 122" stroke="#C9A27E" stroke-width="6"/></g></svg>
