<svg xmlns="http://www.w3.org/2000/svg" viewBox="5.7 4.0 661.3 713.3" width="661" height="713"><g transform="translate(-124.99 -153.77) scale(3.6630)" fill="none" stroke-linecap="round" stroke-linejoin="round"><g stroke="#E3B26B" stroke-width="3.2"><path d="M158.4 60.5V54.5M168 64.4L172.2 60.2M171.9 74H177.9M168 83.6L172.2 87.8M158.4 87.5V93.5M148.8 83.6L144.6 87.8M144.9 74H138.9M148.8 64.4L144.6 60.2"/></g>
<circle cx="158.4" cy="74" r="9.6" fill="#E8BE7E"/>
<g fill="#86A57F"><circle cx="93.6" cy="70" r="10"/><circle cx="80.6" cy="81" r="8.8"/><circle cx="106.6" cy="79.5" r="8.8"/><circle cx="93.6" cy="84" r="11.5"/><circle cx="86.4" cy="95.2" r="8.8"/><circle cx="101.2" cy="94" r="9"/></g>
<path d="M88.9 131C90.4 114 91.4 99 91.7 85Q93 82.4 94.3 85C94.6 99 95.6 114 97.1 131Z" fill="#6B4A33"/>
<g stroke="#6B4A33" stroke-width="3.4"><path d="M92.6 100.6L83.8 91M93.4 100.6L102.2 91"/></g>
<path d="M110.6 131V97.6L130.6 82L149.6 97.4V131Z" fill="#F6F1E8"/>
<path d="M103 103.6L130.6 81.4L158.2 103.6" stroke="#2C4636" stroke-width="6"/>
<path d="M110.6 98V129M149.6 98V129" stroke="#2C4636" stroke-width="6"/>
<g fill="#BF8547"><rect x="123.2" y="96" width="6.2" height="6.1" rx="1.5"/><rect x="130.8" y="96" width="6.2" height="6.1" rx="1.5"/><rect x="123.2" y="103.3" width="6.2" height="6.1" rx="1.5"/><rect x="130.8" y="103.3" width="6.2" height="6.1" rx="1.5"/><path d="M123.1 131V119.4a7 7 0 0 1 14 0V131Z"/></g>
<circle cx="132.6" cy="123.6" r="1.4" fill="#2C4636"/>
<path d="M78.6 132H173.6" stroke="#6B4A33" stroke-width="5.6"/></g><path d="M110.425 384.175Q110.425 381.775 111.88749999999999 380.3875Q113.35 379.0 116.35 379.0H138.925Q142.0 379.0 143.425 380.3875Q144.85 381.775 144.85 384.175Q144.85 386.05 143.9125 387.2125Q142.975 388.375 140.95 389.35L138.175 390.325Q136.14999999999998 391.15 134.98749999999998 392.7625Q133.825 394.375 132.475 398.35L108.77499999999999 467.275Q107.64999999999999 470.5 107.05 472.3375Q106.45 474.175 106.45 476.05V478.6Q106.45 481.15 105.13749999999999 482.575Q103.82499999999999 484.0 101.725 484.0H84.32499999999999Q82.225 484.0 80.9125 482.575Q79.6 481.15 79.6 478.45V475.825Q79.6 474.4 79.07499999999999 472.86249999999995Q78.55 471.325 77.875 469.375L52.825 396.7Q51.85 393.925 50.837500000000006 392.6125Q49.825 391.3 47.875 390.4L45.25 389.5Q41.8 387.925 41.8 384.175Q41.8 381.775 43.2625 380.3875Q44.725 379.0 47.8 379.0H80.875Q84.025 379.0 85.45 380.3875Q86.875 381.775 86.875 384.175Q86.875 386.125 85.8625 387.325Q84.85 388.525 82.9 389.35L78.55 390.4Q76.6 391.075 76.1125 392.8375Q75.625 394.6 76.82499999999999 398.275L100.9 468.925L94.3 475.675L121.3 397.375Q122.35 394.375 121.7875 392.8Q121.225 391.225 118.75 390.4L114.39999999999999 389.35Q112.52499999999999 388.6 111.475 387.4Q110.425 386.2 110.425 384.175ZM172.0 419.125V468.175Q172.0 471.175 172.7125 472.4125Q173.425 473.65 174.775 474.25L176.875 474.925Q178.375 475.75 179.16250000000002 476.8375Q179.95000000000002 477.925 179.95000000000002 479.575Q179.95000000000002 481.675 178.675 482.8375Q177.4 484.0 175.07500000000002 484.0H148.9Q146.57500000000002 484.0 145.26250000000002 482.8375Q143.95000000000002 481.675 143.95000000000002 479.575Q143.95000000000002 477.925 144.77500000000003 476.8375Q145.60000000000002 475.75 147.10000000000002 474.925L149.20000000000002 474.25Q150.625 473.65 151.3 472.4125Q151.97500000000002 471.175 151.97500000000002 468.175V435.025Q151.97500000000002 432.4 151.26250000000002 431.35Q150.55 430.3 149.125 429.85L145.9 429.475Q144.47500000000002 428.8 143.6875 427.8625Q142.9 426.925 142.9 425.5Q142.9 423.85 143.91250000000002 422.65Q144.925 421.45 147.32500000000002 420.625L159.25 416.2Q162.10000000000002 415.075 163.9375 414.5875Q165.775 414.1 167.425 414.1Q169.60000000000002 414.1 170.8 415.4875Q172.0 416.875 172.0 419.125ZM160.60000000000002 403.375Q154.82500000000002 403.375 151.33750000000003 400.2625Q147.85000000000002 397.15 147.85000000000002 392.05Q147.85000000000002 386.95 151.33750000000003 383.875Q154.82500000000002 380.8 160.60000000000002 380.8Q166.45000000000002 380.8 169.9375 383.875Q173.425 386.95 173.425 392.05Q173.425 397.15 169.9375 400.2625Q166.45000000000002 403.375 160.60000000000002 403.375ZM225.47499999999997 485.125H218.87499999999997Q216.02499999999998 485.125 214.11249999999998 483.4375Q212.2 481.75 210.77499999999998 478.375L191.42499999999998 430.75Q190.52499999999998 428.425 189.7 427.0Q188.87499999999997 425.575 187.6 424.975L185.575 424.225Q183.99999999999997 423.25 183.28749999999997 422.275Q182.575 421.3 182.575 419.725Q182.575 417.625 183.8875 416.4625Q185.2 415.3 187.45 415.3H217.37499999999997Q221.95 415.3 221.95 419.725Q221.95 421.375 220.9375 422.3875Q219.92499999999998 423.4 218.2 424.3L216.02499999999998 425.05Q213.62499999999997 425.95 213.21249999999998 427.975Q212.79999999999998 430.0 214.14999999999998 433.6L230.27499999999998 476.05L225.39999999999998 476.5L241.825 433.45Q243.09999999999997 430.15 242.49999999999997 428.04999999999995Q241.89999999999998 425.95 239.575 425.05L237.17499999999998 424.3Q235.45 423.4 234.58749999999998 422.42499999999995Q233.72499999999997 421.45 233.72499999999997 419.725Q233.72499999999997 417.625 235.03749999999997 416.4625Q236.34999999999997 415.3 238.67499999999998 415.3H257.575Q259.9 415.3 261.2125 416.4625Q262.525 417.625 262.525 419.725Q262.525 421.225 261.84999999999997 422.2375Q261.17499999999995 423.25 259.525 424.225L257.5 424.975Q256.29999999999995 425.575 255.21249999999998 427.225Q254.125 428.875 252.325 433.225L233.64999999999998 479.05Q232.14999999999998 482.5 230.08749999999998 483.8125Q228.02499999999998 485.125 225.47499999999997 485.125ZM331.22499999999997 439.975Q331.22499999999997 444.925 328.41249999999997 447.5875Q325.59999999999997 450.25 320.42499999999995 450.25H278.12499999999994V442.9H306.32499999999993Q310.9 442.9 310.9 438.55Q310.9 431.65 307.44999999999993 427.7875Q303.99999999999994 423.925 298.67499999999995 423.925Q294.32499999999993 423.925 290.94999999999993 426.32500000000005Q287.57499999999993 428.725 285.5875 433.3Q283.59999999999997 437.875 283.59999999999997 444.475Q283.59999999999997 457.6 289.86249999999995 464.38750000000005Q296.12499999999994 471.175 306.24999999999994 471.175Q312.47499999999997 471.175 317.23749999999995 468.4375Q321.99999999999994 465.7 324.62499999999994 461.8Q325.9 460.45 326.79999999999995 459.8875Q327.69999999999993 459.325 328.59999999999997 459.4Q329.72499999999997 459.4 330.51249999999993 460.2625Q331.29999999999995 461.125 331.22499999999997 463.0Q330.99999999999994 468.85 327.17499999999995 474.025Q323.34999999999997 479.2 316.59999999999997 482.4625Q309.84999999999997 485.725 300.69999999999993 485.725Q289.97499999999997 485.725 282.025 481.26250000000005Q274.07499999999993 476.8 269.76249999999993 468.85Q265.44999999999993 460.9 265.44999999999993 450.475Q265.44999999999993 439.975 269.68749999999994 431.65Q273.92499999999995 423.325 282.025 418.525Q290.12499999999994 413.725 301.44999999999993 413.725Q310.44999999999993 413.725 317.12499999999994 417.175Q323.79999999999995 420.625 327.51249999999993 426.5875Q331.22499999999997 432.55 331.22499999999997 439.975ZM367.975 377.65V468.175Q367.975 471.175 368.6875 472.4125Q369.40000000000003 473.65 370.75 474.25L372.85 474.925Q374.35 475.825 375.175 476.875Q376.0 477.925 376.0 479.575Q376.0 481.675 374.6875 482.8375Q373.375 484.0 371.05 484.0H344.875Q342.625 484.0 341.3125 482.8375Q340.0 481.675 340.0 479.575Q340.0 477.925 340.7875 476.875Q341.575 475.825 343.075 474.925L345.175 474.25Q346.6 473.65 347.275 472.4125Q347.95 471.175 347.95 468.175V393.475Q347.95 390.925 347.275 389.8375Q346.6 388.75 345.175 388.3L341.95 388.0Q340.45 387.325 339.6625 386.3875Q338.875 385.45 338.875 383.95Q338.875 382.3 339.925 381.13750000000005Q340.975 379.975 343.3 379.075L355.3 374.65Q358.075 373.6 359.9125 373.07500000000005Q361.75 372.55 363.40000000000003 372.55Q365.575 372.55 366.775 373.9375Q367.975 375.325 367.975 377.65ZM409.9 437.35 405.7 432.475 409.15 429.175Q417.62499999999994 420.85 424.56249999999994 417.2875Q431.49999999999994 413.725 437.79999999999995 413.725Q446.79999999999995 413.725 452.31249999999994 419.57500000000005Q457.82499999999993 425.425 457.82499999999993 435.4V468.175Q457.82499999999993 471.175 458.5374999999999 472.4125Q459.24999999999994 473.65 460.67499999999995 474.25L462.69999999999993 474.925Q464.19999999999993 475.825 465.025 476.875Q465.84999999999997 477.925 465.84999999999997 479.575Q465.84999999999997 481.675 464.53749999999997 482.8375Q463.22499999999997 484.0 460.9 484.0H434.87499999999994Q430.37499999999994 484.0 430.37499999999994 479.575Q430.37499999999994 476.95 432.92499999999995 475.525L435.17499999999995 474.7Q436.59999999999997 474.1 437.23749999999995 472.75Q437.87499999999994 471.4 437.87499999999994 468.175V440.425Q437.87499999999994 434.425 434.98749999999995 431.275Q432.09999999999997 428.125 427.22499999999997 428.125Q423.92499999999995 428.125 420.25 429.6625Q416.575 431.2 412.67499999999995 434.8ZM412.15 377.65V468.175Q412.15 471.4 412.78749999999997 472.75Q413.42499999999995 474.1 414.84999999999997 474.7L417.025 475.525Q419.65 476.95 419.65 479.575Q419.65 484.0 415.15 484.0H389.04999999999995Q386.79999999999995 484.0 385.48749999999995 482.8375Q384.17499999999995 481.675 384.17499999999995 479.575Q384.17499999999995 477.925 384.9625 476.875Q385.74999999999994 475.825 387.24999999999994 474.925L389.34999999999997 474.25Q390.775 473.65 391.44999999999993 472.4125Q392.12499999999994 471.175 392.12499999999994 468.175V393.475Q392.12499999999994 390.925 391.44999999999993 389.8375Q390.775 388.75 389.34999999999997 388.3L386.12499999999994 388.0Q384.62499999999994 387.325 383.8375 386.3875Q383.04999999999995 385.45 383.04999999999995 383.95Q383.04999999999995 382.3 384.09999999999997 381.13750000000005Q385.15 379.975 387.47499999999997 379.075L399.47499999999997 374.65Q402.24999999999994 373.6 404.0875 373.07500000000005Q405.92499999999995 372.55 407.575 372.55Q409.74999999999994 372.55 410.94999999999993 373.9375Q412.15 375.325 412.15 377.65ZM510.025 413.725Q520.975 413.725 529.225 418.3375Q537.475 422.95 542.0875 431.0875Q546.6999999999999 439.225 546.6999999999999 449.875Q546.6999999999999 460.0 541.9749999999999 468.1Q537.25 476.2 528.8125 480.92499999999995Q520.375 485.65 509.34999999999997 485.65Q498.4 485.65 490.15 481.0375Q481.9 476.425 477.28749999999997 468.25Q472.67499999999995 460.075 472.67499999999995 449.35Q472.67499999999995 439.3 477.4 431.2375Q482.125 423.175 490.525 418.45000000000005Q498.92499999999995 413.725 510.025 413.725ZM515.5749999999999 474.85Q520.0 473.875 522.7 470.125Q525.4 466.375 526.15 460.3375Q526.9 454.3 525.175 446.575Q523.4499999999999 438.325 520.1875 433.075Q516.925 427.825 512.7624999999999 425.65Q508.59999999999997 423.475 504.025 424.45Q499.67499999999995 425.35 496.86249999999995 429.0625Q494.04999999999995 432.775 493.29999999999995 438.775Q492.54999999999995 444.775 494.275 452.725Q496.075 460.975 499.3375 466.1875Q502.59999999999997 471.4 506.79999999999995 473.575Q511.0 475.75 515.5749999999999 474.85ZM599.4999999999999 475.375 588.3999999999999 495.1 560.1249999999999 430.75Q558.8499999999999 427.75 557.425 426.6625Q555.9999999999999 425.575 553.4499999999999 424.45Q551.8749999999999 423.55 551.1249999999999 422.5Q550.3749999999999 421.45 550.3749999999999 419.95Q550.3749999999999 417.775 551.7249999999999 416.5375Q553.0749999999999 415.3 555.3249999999999 415.3H585.4749999999999Q587.7249999999999 415.3 588.9999999999999 416.4625Q590.2749999999999 417.625 590.2749999999999 419.725Q590.2749999999999 421.375 589.3 422.4625Q588.3249999999999 423.55 586.5249999999999 424.3L584.1249999999999 425.05Q581.8 425.8 581.4624999999999 427.82500000000005Q581.1249999999999 429.85 582.6249999999999 433.6ZM583.7499999999999 496.75 588.3249999999999 485.875 592.4499999999999 478.225 609.8499999999999 433.6Q611.1999999999999 430.075 610.6374999999999 427.975Q610.0749999999999 425.875 607.5999999999999 425.05L604.9749999999999 424.3Q603.175 423.55 602.3125 422.5Q601.4499999999999 421.45 601.4499999999999 419.725Q601.4499999999999 417.625 602.8 416.4625Q604.1499999999999 415.3 606.4749999999999 415.3H625.8999999999999Q628.2249999999999 415.3 629.5749999999999 416.4625Q630.925 417.625 630.925 419.725Q630.925 421.075 630.2874999999999 422.1625Q629.6499999999999 423.25 627.8499999999999 424.3Q625.0749999999999 425.425 623.5749999999999 427.15Q622.0749999999999 428.875 620.2749999999999 433.075L595.1499999999999 494.425Q591.2499999999999 503.875 587.5749999999998 509.425Q583.8999999999999 514.975 579.6249999999999 517.4125Q575.3499999999999 519.85 569.6499999999999 519.85Q560.9499999999999 519.85 556.0 514.9Q551.05 509.95 551.05 502.6Q551.05 498.1 553.2249999999999 495.4Q555.3999999999999 492.7 559.3 492.7Q562.7499999999999 492.7 564.5874999999999 494.65Q566.425 496.6 567.9999999999999 500.575L569.05 503.5Q569.7249999999999 506.05 570.9999999999999 507.175Q572.2749999999999 508.3 573.9999999999999 508.3Q575.8 508.3 577.375 507.25Q578.9499999999999 506.2 580.4875 503.65Q582.0249999999999 501.1 583.7499999999999 496.75Z" fill="#2C4636"/><path d="M50.63400000000006 580.0V547.8H62.318000000000055Q65.67600000000006 547.8 68.25200000000007 549.1569999999999Q70.82800000000006 550.514 72.27700000000006 552.906Q73.72600000000006 555.298 73.72600000000006 558.426Q73.72600000000006 561.508 72.34600000000006 563.923Q70.96600000000007 566.338 68.52800000000006 567.718Q66.09000000000006 569.098 62.916000000000054 569.098H56.476000000000056V580.0ZM56.476000000000056 563.762H62.824000000000055Q65.03200000000005 563.762 66.43500000000006 562.267Q67.83800000000005 560.772 67.83800000000005 558.426Q67.83800000000005 556.034 66.25100000000006 554.562Q64.66400000000006 553.09 62.18000000000006 553.09H56.476000000000056ZM104.50710000000005 580.0V547.8H116.19110000000005Q119.54910000000005 547.8 122.12510000000006 549.111Q124.70110000000005 550.422 126.15010000000005 552.722Q127.59910000000005 555.022 127.59910000000005 558.058Q127.59910000000005 561.232 125.87410000000006 563.6469999999999Q124.14910000000005 566.062 121.34310000000005 567.258L128.88710000000006 580.0H122.30910000000006L115.59310000000005 568.316Q115.27110000000005 568.362 114.97210000000004 568.362Q114.67310000000005 568.362 114.39710000000005 568.362H110.34910000000005V580.0ZM110.34910000000005 563.026H116.32910000000005Q117.80110000000005 563.026 118.97410000000005 562.3820000000001Q120.14710000000005 561.738 120.86010000000005 560.6110000000001Q121.57310000000005 559.484 121.57310000000005 558.058Q121.57310000000005 555.896 120.00910000000005 554.4929999999999Q118.44510000000005 553.09 115.96110000000004 553.09H110.34910000000005ZM174.89420000000004 580.552Q170.06420000000006 580.552 166.36120000000005 578.413Q162.65820000000005 576.274 160.54220000000004 572.525Q158.42620000000005 568.776 158.42620000000005 563.946Q158.42620000000005 559.024 160.51920000000007 555.275Q162.61220000000006 551.526 166.29220000000004 549.41Q169.97220000000004 547.294 174.75620000000006 547.294Q179.58620000000005 547.294 183.26620000000005 549.433Q186.94620000000006 551.572 189.03920000000005 555.321Q191.13220000000007 559.07 191.13220000000007 563.946Q191.13220000000007 568.776 189.06220000000008 572.525Q186.99220000000005 576.274 183.33520000000004 578.413Q179.67820000000006 580.552 174.89420000000004 580.552ZM174.89420000000004 575.216Q177.93020000000004 575.216 180.25320000000005 573.767Q182.57620000000006 572.318 183.88720000000006 569.765Q185.19820000000004 567.212 185.19820000000004 563.9Q185.19820000000004 560.634 183.86420000000004 558.058Q182.53020000000006 555.482 180.18420000000006 554.0329999999999Q177.83820000000006 552.584 174.75620000000006 552.584Q171.76620000000005 552.584 169.39720000000005 554.0329999999999Q167.02820000000006 555.482 165.69420000000005 558.035Q164.36020000000005 560.588 164.36020000000005 563.9Q164.36020000000005 567.258 165.71720000000005 569.788Q167.07420000000005 572.318 169.44320000000005 573.767Q171.81220000000005 575.216 174.89420000000004 575.216ZM222.83330000000004 580.0V547.8H234.51730000000006Q237.87530000000004 547.8 240.45130000000006 549.1569999999999Q243.02730000000005 550.514 244.47630000000004 552.906Q245.92530000000005 555.298 245.92530000000005 558.426Q245.92530000000005 561.508 244.54530000000005 563.923Q243.16530000000006 566.338 240.72730000000007 567.718Q238.28930000000005 569.098 235.11530000000005 569.098H228.67530000000005V580.0ZM228.67530000000005 563.762H235.02330000000006Q237.23130000000006 563.762 238.63430000000005 562.267Q240.03730000000004 560.772 240.03730000000004 558.426Q240.03730000000004 556.034 238.45030000000003 554.562Q236.86330000000004 553.09 234.37930000000006 553.09H228.67530000000005ZM276.70640000000003 580.0V547.8H282.5484V580.0ZM316.1815 580.0V547.8H336.2835V553.136H322.0235V561.048H334.4895V566.246H322.0235V574.664H336.46750000000003V580.0ZM369.6406 580.0V547.8H379.8526Q384.7286 547.8 388.45459999999997 549.87Q392.18059999999997 551.94 394.2736 555.551Q396.3666 559.162 396.3666 563.9Q396.3666 568.592 394.2736 572.226Q392.18059999999997 575.86 388.45459999999997 577.9300000000001Q384.7286 580.0 379.8526 580.0ZM375.4826 574.572H379.8526Q382.1066 574.572 384.0386 573.767Q385.9706 572.962 387.4196 571.5129999999999Q388.8686 570.064 389.6506 568.1089999999999Q390.4326 566.154 390.4326 563.9Q390.4326 561.646 389.6506 559.691Q388.8686 557.736 387.4196 556.287Q385.9706 554.838 384.0386 554.0329999999999Q382.1066 553.228 379.8526 553.228H375.4826ZM424.8017 580.0 437.5897 547.8H443.7997L456.5417 580.0H450.3777L447.4337 572.502H433.9557L430.96569999999997 580.0ZM435.8877 567.35H445.50169999999997L440.7177 555.068ZM486.9548 580.0V547.8H497.16679999999997Q502.04279999999994 547.8 505.76879999999994 549.87Q509.49479999999994 551.94 511.58779999999996 555.551Q513.6808 559.162 513.6808 563.9Q513.6808 568.592 511.58779999999996 572.226Q509.49479999999994 575.86 505.76879999999994 577.9300000000001Q502.04279999999994 580.0 497.16679999999997 580.0ZM492.79679999999996 574.572H497.16679999999997Q499.4208 574.572 501.3528 573.767Q503.28479999999996 572.962 504.7338 571.5129999999999Q506.1828 570.064 506.96479999999997 568.1089999999999Q507.74679999999995 566.154 507.74679999999995 563.9Q507.74679999999995 561.646 506.96479999999997 559.691Q506.1828 557.736 504.7338 556.287Q503.28479999999996 554.838 501.3528 554.0329999999999Q499.4208 553.228 497.16679999999997 553.228H492.79679999999996ZM545.3818999999999 580.0V547.8H565.4838999999998V553.136H551.2238999999998V561.048H563.6898999999999V566.246H551.2238999999998V574.664H565.6678999999998V580.0ZM609.5589999999999 580.552Q607.0749999999999 580.552 604.9589999999998 579.954Q602.8429999999998 579.356 601.233 578.298Q599.6229999999999 577.24 598.5649999999998 575.906Q597.5069999999998 574.572 597.1389999999999 573.1L602.8429999999998 571.398Q603.4409999999999 573.008 605.0739999999998 574.2270000000001Q606.7069999999999 575.446 609.1449999999999 575.492Q611.8589999999999 575.538 613.5149999999999 574.365Q615.1709999999998 573.192 615.1709999999998 571.26Q615.1709999999998 569.604 613.8139999999999 568.5Q612.4569999999999 567.396 610.1569999999999 566.798L606.0629999999999 565.74Q603.7629999999999 565.142 601.9689999999998 563.969Q600.1749999999998 562.796 599.1629999999998 561.002Q598.1509999999998 559.208 598.1509999999998 556.862Q598.1509999999998 552.308 601.1179999999999 549.778Q604.0849999999999 547.248 609.5589999999999 547.248Q612.6869999999999 547.248 614.9869999999999 548.168Q617.2869999999999 549.088 618.828 550.721Q620.3689999999999 552.354 621.1969999999999 554.562L615.5389999999999 556.31Q614.9409999999999 554.608 613.3309999999999 553.458Q611.7209999999999 552.308 609.3289999999998 552.308Q606.8909999999998 552.308 605.4879999999998 553.458Q604.0849999999999 554.608 604.0849999999999 556.678Q604.0849999999999 558.334 605.1889999999999 559.2539999999999Q606.2929999999999 560.174 608.1789999999999 560.68L612.2729999999999 561.692Q616.5509999999999 562.704 618.8739999999999 565.326Q621.1969999999999 567.948 621.1969999999999 571.076Q621.1969999999999 573.882 619.8399999999999 576.021Q618.4829999999998 578.16 615.8839999999998 579.356Q613.2849999999999 580.552 609.5589999999999 580.552Z" fill="#94602E"/><path d="M85.24999999999997 660.409Q85.70999999999998 660.616 85.80199999999998 661.3175Q85.89399999999998 662.019 85.29599999999998 663.146Q84.14599999999999 665.308 82.22549999999998 667.0215000000001Q80.30499999999998 668.735 77.77499999999998 669.701Q75.24499999999998 670.667 72.18599999999998 670.667Q68.34499999999998 670.667 65.59649999999998 668.827Q62.84799999999998 666.987 61.640499999999975 663.514Q60.43299999999998 660.041 61.168999999999976 655.142Q61.69799999999998 651.485 63.31949999999998 648.242Q64.94099999999997 644.999 67.39049999999997 642.492Q69.83999999999997 639.985 72.94499999999998 638.559Q76.04999999999998 637.133 79.54599999999998 637.133Q80.83399999999997 637.133 81.76549999999997 637.3285000000001Q82.69699999999997 637.524 83.35249999999998 637.777Q84.00799999999998 638.03 84.44499999999998 638.2255Q84.88199999999998 638.421 85.20399999999998 638.421Q85.54899999999998 638.421 85.82499999999997 638.2255Q86.10099999999997 638.03 86.35399999999997 637.777Q86.60699999999997 637.524 86.91749999999998 637.3285000000001Q87.22799999999998 637.133 87.66499999999998 637.133Q88.26299999999998 637.133 88.60799999999998 637.524Q88.95299999999997 637.915 88.99899999999998 638.628L89.48199999999997 645.666Q89.50499999999998 646.356 89.10249999999998 646.7355Q88.69999999999997 647.115 88.10199999999998 647.115Q87.02099999999999 647.115 86.65299999999998 645.85L86.12399999999998 644.171Q85.47999999999998 641.986 83.97349999999997 640.9395Q82.46699999999998 639.893 79.93699999999998 639.893Q77.49899999999998 639.893 75.37149999999997 641.0775Q73.24399999999997 642.262 71.55349999999997 644.332Q69.86299999999997 646.402 68.72449999999998 649.0815Q67.58599999999998 651.761 67.12599999999998 654.797Q66.45899999999997 658.845 67.18349999999998 661.5935Q67.90799999999997 664.342 69.65599999999998 665.745Q71.40399999999998 667.148 73.81899999999997 667.148Q75.72799999999998 667.148 77.34949999999998 666.5155Q78.97099999999998 665.883 80.38549999999998 664.6410000000001Q81.79999999999998 663.399 82.99599999999998 661.536Q83.66299999999998 660.754 84.18049999999998 660.4549999999999Q84.69799999999998 660.156 85.24999999999997 660.409ZM102.63799999999998 648.587Q105.46699999999998 648.725 107.29549999999998 650.059Q109.12399999999998 651.393 109.83699999999999 653.7045Q110.54999999999998 656.016 110.08999999999997 659.075Q109.67599999999997 661.858 108.45699999999997 664.0429999999999Q107.23799999999997 666.228 105.42099999999998 667.7Q103.60399999999998 669.172 101.34999999999998 669.885Q99.09599999999998 670.598 96.61199999999998 670.46Q93.92099999999998 670.322 92.09249999999997 669.011Q90.26399999999998 667.7 89.52799999999998 665.3885Q88.79199999999997 663.077 89.32099999999998 659.972Q89.68899999999998 657.557 90.78149999999998 655.441Q91.87399999999998 653.325 93.59899999999999 651.738Q95.32399999999998 650.151 97.58949999999999 649.3Q99.85499999999998 648.449 102.63799999999998 648.587ZM97.60099999999997 667.769Q98.45199999999997 667.838 99.34899999999998 667.5274999999999Q100.24599999999998 667.217 101.08549999999998 666.527Q101.92499999999998 665.837 102.67249999999999 664.733Q103.41999999999997 663.629 103.99499999999998 662.088Q104.56999999999998 660.547 104.91499999999998 658.546Q105.32899999999998 656.223 105.02999999999997 654.636Q104.73099999999998 653.049 103.87999999999998 652.2094999999999Q103.02899999999998 651.37 101.78699999999998 651.278Q100.79799999999997 651.209 99.85499999999998 651.6115Q98.91199999999998 652.014 98.04949999999998 652.819Q97.18699999999998 653.624 96.46249999999998 654.797Q95.73799999999997 655.97 95.20899999999997 657.442Q94.67999999999998 658.914 94.38099999999997 660.639Q93.96699999999998 662.985 94.27749999999997 664.5375Q94.58799999999998 666.09 95.46199999999999 666.8835Q96.33599999999998 667.677 97.60099999999997 667.769ZM114.43699999999997 653.624Q114.04599999999998 653.417 114.02299999999997 652.888Q113.99999999999997 652.359 114.41399999999997 651.738Q115.33399999999997 650.335 117.01299999999998 649.4725000000001Q118.69199999999998 648.61 120.37099999999998 648.61Q121.81999999999998 648.61 122.52149999999997 649.1965Q123.22299999999997 649.783 123.22299999999997 650.887Q123.22299999999997 651.554 122.93549999999996 652.405Q122.64799999999997 653.256 122.15349999999998 654.4635000000001Q121.65899999999998 655.671 121.00349999999997 657.373Q120.34799999999997 659.075 119.61199999999997 661.467L118.73799999999997 661.306Q120.20999999999998 657.741 121.94649999999999 655.2915Q123.68299999999998 652.842 125.48849999999999 651.37Q127.29399999999998 649.898 129.065 649.254Q130.83599999999998 648.61 132.37699999999998 648.61Q134.21699999999998 648.61 134.9645 649.5070000000001Q135.712 650.404 135.57399999999998 652.0485Q135.43599999999998 653.693 134.58499999999998 655.924L131.84799999999998 663.468Q131.29599999999996 664.94 131.38799999999998 665.6185Q131.47999999999996 666.297 132.19299999999998 666.297Q132.56099999999998 666.297 132.91749999999996 666.159Q133.27399999999997 666.021 133.80299999999997 665.607Q134.14799999999997 665.354 134.42399999999998 665.262Q134.7 665.17 134.99899999999997 665.354Q135.32099999999997 665.561 135.34399999999997 666.067Q135.36699999999996 666.573 135.02199999999996 667.24Q134.21699999999998 668.689 132.68749999999997 669.586Q131.15799999999996 670.483 129.38699999999997 670.483Q127.82299999999998 670.483 127.06399999999998 669.8045Q126.30499999999998 669.126 126.29349999999997 667.8265Q126.28199999999997 666.527 126.92599999999997 664.641L129.70899999999997 656.66Q130.46799999999996 654.498 130.2265 653.5550000000001Q129.98499999999999 652.612 128.69699999999997 652.612Q127.70799999999997 652.612 126.52349999999997 653.2215Q125.33899999999997 653.831 124.13149999999997 654.9925000000001Q122.92399999999998 656.154 121.88899999999998 657.81Q120.85399999999997 659.466 120.16399999999997 661.536Q119.72699999999998 662.847 119.48549999999997 663.5944999999999Q119.24399999999997 664.342 119.14049999999997 664.779Q119.03699999999998 665.216 119.03699999999998 665.584Q119.03699999999998 666.113 119.24399999999997 666.7225000000001Q119.45099999999998 667.332 119.45099999999998 668.068Q119.45099999999998 669.172 118.33549999999997 669.8275Q117.21999999999997 670.483 115.33399999999997 670.483Q113.79299999999998 670.483 113.43649999999997 669.1835Q113.07999999999997 667.884 114.09199999999997 665.446L117.70299999999997 655.786Q118.43899999999998 653.946 118.35849999999998 653.2445Q118.27799999999998 652.543 117.49599999999998 652.543Q117.12799999999997 652.543 116.73699999999997 652.7384999999999Q116.34599999999998 652.934 115.79399999999997 653.302Q115.37999999999997 653.578 115.04649999999998 653.6814999999999Q114.71299999999998 653.785 114.43699999999997 653.624ZM146.59099999999998 653.026 147.62599999999998 649.668 153.09999999999997 649.691Q153.88199999999998 649.691 154.30749999999998 649.9325Q154.73299999999998 650.174 154.73299999999998 650.818Q154.73299999999998 651.439 154.34199999999998 651.9335Q153.95099999999996 652.428 153.31849999999997 652.727Q152.68599999999998 653.026 151.95 653.026ZM140.33499999999998 650.956Q140.33499999999998 650.381 140.78349999999998 650.0245Q141.23199999999997 649.668 141.99099999999999 649.668H144.56699999999998L145.62499999999997 645.482Q146.545 641.365 148.661 639.1800000000001Q150.777 636.995 154.41099999999997 636.995Q156.527 636.995 157.5505 637.892Q158.57399999999998 638.789 158.57399999999998 640.008Q158.57399999999998 641.158 157.9185 641.8365Q157.26299999999998 642.515 156.182 642.515Q155.469 642.515 154.9055 642.216Q154.34199999999998 641.917 153.83599999999998 641.503Q153.32999999999998 641.089 152.78949999999998 640.79Q152.24899999999997 640.491 151.582 640.491Q150.57 640.491 149.926 641.1005Q149.28199999999998 641.71 149.02899999999997 642.837Q148.84499999999997 643.55 148.9715 644.3665Q149.09799999999998 645.183 149.30499999999998 646.0455Q149.51199999999997 646.908 149.60399999999998 647.828Q149.69599999999997 648.748 149.44299999999998 649.668L143.60099999999997 670.828Q143.43999999999997 671.38 143.3825 671.863Q143.325 672.346 143.325 672.829Q143.325 673.404 143.62399999999997 673.7950000000001Q143.92299999999997 674.186 144.22199999999998 674.5655Q144.521 674.945 144.521 675.566Q144.521 676.394 143.81949999999998 677.0609999999999Q143.11799999999997 677.728 142.02549999999997 678.1305Q140.933 678.533 139.73699999999997 678.533Q138.242 678.533 137.82799999999997 677.383Q137.414 676.233 138.081 673.979L143.46299999999997 655.418Q143.85399999999998 654.13 143.44 653.44Q143.02599999999998 652.75 141.66899999999998 652.474Q141.02499999999998 652.152 140.67999999999998 651.7840000000001Q140.33499999999998 651.416 140.33499999999998 650.956ZM160.85099999999997 663.33Q160.18399999999997 664.986 160.28749999999997 665.6759999999999Q160.39099999999996 666.366 161.14999999999998 666.366Q161.49499999999998 666.366 161.86299999999997 666.1935Q162.23099999999997 666.021 162.75999999999996 665.63Q163.12799999999996 665.377 163.42699999999996 665.2735Q163.72599999999997 665.17 164.00199999999998 665.377Q164.34699999999998 665.561 164.36999999999998 666.0785000000001Q164.39299999999997 666.596 164.02499999999998 667.286Q163.24299999999997 668.62 161.71349999999995 669.54Q160.18399999999997 670.46 158.36699999999996 670.46Q156.89499999999998 670.46 156.07849999999996 669.7815Q155.26199999999997 669.103 155.19299999999998 667.7805Q155.12399999999997 666.458 155.88299999999998 664.549L159.30999999999997 655.763Q160.04599999999996 653.969 159.95399999999995 653.2675Q159.86199999999997 652.566 159.07999999999998 652.566Q158.71199999999996 652.566 158.30949999999996 652.7615000000001Q157.90699999999998 652.957 157.40099999999998 653.325Q156.98699999999997 653.578 156.66499999999996 653.693Q156.34299999999996 653.808 156.04399999999998 653.647Q155.67599999999996 653.44 155.64149999999995 652.9110000000001Q155.60699999999997 652.382 156.02099999999996 651.738Q156.87199999999996 650.45 158.49349999999998 649.53Q160.11499999999998 648.61 161.79399999999998 648.61Q163.19699999999997 648.61 164.01349999999996 649.2885Q164.82999999999998 649.967 164.91049999999998 651.3354999999999Q164.99099999999999 652.704 164.13999999999996 654.774ZM163.58799999999997 644.447Q162.11599999999999 644.447 161.3225 643.619Q160.52899999999997 642.791 160.64399999999998 641.618Q160.71299999999997 640.698 161.28799999999995 639.9045Q161.86299999999997 639.111 162.82899999999995 638.6279999999999Q163.79499999999996 638.145 165.03699999999998 638.145Q166.55499999999998 638.145 167.27949999999998 638.9845Q168.00399999999996 639.824 167.86599999999999 641.089Q167.79699999999997 641.986 167.23349999999996 642.745Q166.66999999999996 643.504 165.72699999999998 643.9755Q164.78399999999996 644.447 163.58799999999997 644.447ZM186.19699999999997 664.089Q185.89799999999997 665.17 186.03599999999997 665.745Q186.17399999999998 666.32 186.84099999999998 666.32Q187.27799999999996 666.32 187.64599999999996 666.113Q188.01399999999998 665.906 188.474 665.561Q188.819 665.308 189.09499999999997 665.2275Q189.37099999999998 665.147 189.57799999999997 665.262Q189.89999999999998 665.423 189.95749999999998 665.8715Q190.015 666.32 189.71599999999998 667.079Q189.09499999999997 668.505 187.57699999999997 669.4825000000001Q186.05899999999997 670.46 184.10399999999998 670.46Q182.93099999999998 670.46 182.2525 669.7470000000001Q181.57399999999998 669.034 181.57399999999998 667.631Q181.57399999999998 667.079 181.65449999999998 666.458Q181.73499999999999 665.837 181.9305 664.9515Q182.12599999999998 664.066 182.50549999999998 662.7435Q182.885 661.421 183.45999999999998 659.443L183.85099999999997 660.639Q182.33299999999997 663.928 180.57349999999997 666.113Q178.81399999999996 668.298 176.87049999999996 669.379Q174.92699999999996 670.46 172.81099999999998 670.46Q170.557 670.46 169.26899999999998 668.9075Q167.98099999999997 667.355 168.25699999999998 664.02Q168.37199999999999 661.697 169.23449999999997 659.4545Q170.09699999999998 657.212 171.546 655.2339999999999Q172.99499999999998 653.256 174.95 651.761Q176.90499999999997 650.266 179.23949999999996 649.4035Q181.57399999999998 648.541 184.14999999999998 648.541Q186.42699999999996 648.541 187.80699999999996 648.863Q189.18699999999998 649.185 189.808 649.7829999999999Q190.42899999999997 650.381 190.38299999999998 651.209Q190.31399999999996 651.853 189.99199999999996 652.267Q189.67 652.681 189.31349999999998 653.0835Q188.957 653.486 188.796 654.084ZM173.20199999999997 663.399Q173.04099999999997 665.446 173.60449999999997 666.274Q174.16799999999998 667.102 175.22599999999997 667.102Q176.32999999999998 667.102 177.57199999999997 666.182Q178.81399999999996 665.262 180.03299999999996 663.721Q181.25199999999998 662.18 182.26399999999998 660.3399999999999Q183.27599999999998 658.5 183.91999999999996 656.6485Q184.56399999999996 654.797 184.65599999999998 653.233Q184.72499999999997 652.29 184.24199999999996 651.8299999999999Q183.759 651.37 182.83899999999997 651.37Q181.59699999999998 651.37 180.28599999999997 652.037Q178.97499999999997 652.704 177.76749999999998 653.8885Q176.55999999999997 655.073 175.57099999999997 656.6025Q174.58199999999997 658.132 173.96099999999996 659.88Q173.33999999999997 661.628 173.20199999999997 663.399ZM195.02899999999997 653.624Q194.63799999999998 653.417 194.61499999999998 652.888Q194.59199999999998 652.359 195.00599999999997 651.738Q195.92599999999996 650.335 197.60499999999996 649.4725000000001Q199.28399999999996 648.61 200.96299999999997 648.61Q202.41199999999998 648.61 203.1135 649.1965Q203.81499999999997 649.783 203.81499999999997 650.887Q203.81499999999997 651.554 203.52749999999997 652.405Q203.23999999999998 653.256 202.7455 654.4635000000001Q202.25099999999998 655.671 201.59549999999996 657.373Q200.93999999999997 659.075 200.20399999999998 661.467L199.32999999999998 661.306Q200.80199999999996 657.741 202.53849999999997 655.2915Q204.27499999999998 652.842 206.08049999999997 651.37Q207.88599999999997 649.898 209.65699999999998 649.254Q211.42799999999997 648.61 212.96899999999997 648.61Q214.80899999999997 648.61 215.55649999999997 649.5070000000001Q216.30399999999997 650.404 216.16599999999997 652.0485Q216.02799999999996 653.693 215.17699999999996 655.924L212.43999999999997 663.468Q211.88799999999998 664.94 211.97999999999996 665.6185Q212.07199999999997 666.297 212.78499999999997 666.297Q213.15299999999996 666.297 213.50949999999997 666.159Q213.86599999999999 666.021 214.39499999999998 665.607Q214.73999999999998 665.354 215.01599999999996 665.262Q215.29199999999997 665.17 215.59099999999998 665.354Q215.91299999999998 665.561 215.93599999999998 666.067Q215.95899999999997 666.573 215.61399999999998 667.24Q214.80899999999997 668.689 213.27949999999998 669.586Q211.74999999999997 670.483 209.97899999999998 670.483Q208.41499999999996 670.483 207.65599999999995 669.8045Q206.89699999999996 669.126 206.88549999999998 667.8265Q206.87399999999997 666.527 207.51799999999997 664.641L210.301 656.66Q211.05999999999997 654.498 210.81849999999997 653.5550000000001Q210.57699999999997 652.612 209.289 652.612Q208.29999999999998 652.612 207.1155 653.2215Q205.93099999999998 653.831 204.72349999999997 654.9925000000001Q203.51599999999996 656.154 202.48099999999997 657.81Q201.44599999999997 659.466 200.75599999999997 661.536Q200.31899999999996 662.847 200.0775 663.5944999999999Q199.83599999999998 664.342 199.73249999999996 664.779Q199.62899999999996 665.216 199.62899999999996 665.584Q199.62899999999996 666.113 199.83599999999996 666.7225000000001Q200.04299999999998 667.332 200.04299999999998 668.068Q200.04299999999998 669.172 198.92749999999998 669.8275Q197.81199999999998 670.483 195.92599999999996 670.483Q194.38499999999996 670.483 194.02849999999995 669.1835Q193.67199999999997 667.884 194.68399999999997 665.446L198.29499999999996 655.786Q199.03099999999998 653.946 198.95049999999998 653.2445Q198.86999999999998 652.543 198.08799999999997 652.543Q197.71999999999997 652.543 197.32899999999995 652.7384999999999Q196.93799999999996 652.934 196.38599999999997 653.302Q195.97199999999998 653.578 195.63849999999996 653.6814999999999Q195.30499999999998 653.785 195.02899999999997 653.624ZM226.42399999999998 665.676Q226.95299999999997 665.032 227.59699999999998 664.3305Q228.24099999999996 663.629 229.45999999999998 662.456Q230.67899999999997 661.283 232.86399999999998 659.213Q234.10599999999997 657.948 235.06049999999996 657.0165Q236.01499999999996 656.085 236.71649999999994 655.4639999999999Q237.41799999999995 654.843 237.94699999999995 654.4865Q238.47599999999997 654.13 238.88999999999996 653.969Q240.36199999999997 653.486 241.06349999999998 652.6695Q241.76499999999996 651.853 241.81099999999998 650.611Q241.83399999999997 649.691 241.37399999999997 649.139Q240.91399999999996 648.587 240.03999999999996 648.587Q239.41899999999995 648.587 238.95899999999995 648.8745Q238.49899999999997 649.162 238.15399999999997 649.599Q237.80899999999997 650.0360000000001 237.49849999999998 650.473Q237.18799999999996 650.91 236.84299999999996 651.1975Q236.49799999999996 651.485 236.03799999999995 651.485Q235.46299999999997 651.485 234.89949999999996 651.1975Q234.33599999999996 650.91 233.69199999999995 650.473Q233.04799999999997 650.0360000000001 232.24299999999997 649.599Q231.43799999999996 649.162 230.37999999999997 648.8745Q229.32199999999997 648.587 227.89599999999996 648.587Q225.98699999999997 648.587 224.61849999999998 649.415Q223.24999999999997 650.243 222.54849999999996 651.577Q221.84699999999995 652.9110000000001 221.84699999999995 654.452Q221.84699999999995 655.855 222.51399999999995 656.614Q223.18099999999995 657.373 224.26199999999997 657.373Q224.85999999999996 657.373 225.30849999999998 657.028Q225.75699999999998 656.683 225.75699999999998 656.108Q225.75699999999998 655.74 225.61899999999997 655.3835Q225.48099999999997 655.027 225.13599999999997 654.82Q224.76799999999997 654.567 224.61849999999998 654.268Q224.46899999999997 653.969 224.46899999999997 653.739Q224.46899999999997 653.21 224.97499999999997 652.8765000000001Q225.48099999999997 652.543 226.53899999999996 652.543Q227.36699999999996 652.543 228.53999999999996 652.796Q229.71299999999997 653.049 230.95499999999998 653.3824999999999Q232.19699999999997 653.716 233.28949999999998 653.969Q234.38199999999998 654.222 235.04899999999998 654.222L234.97999999999996 653.164Q234.70399999999995 653.601 234.00249999999994 654.337Q233.30099999999996 655.073 232.05899999999997 656.2919999999999Q230.81699999999995 657.511 228.90799999999996 659.466Q227.50499999999997 660.938 226.55049999999997 661.8924999999999Q225.59599999999998 662.847 224.97499999999997 663.422Q224.35399999999996 663.997 223.91699999999997 664.296Q223.47999999999996 664.595 223.11199999999997 664.756Q221.68599999999998 665.216 220.789 665.8025Q219.89199999999997 666.389 219.47799999999995 667.0675Q219.06399999999996 667.746 219.06399999999996 668.482Q219.06399999999996 669.448 219.58149999999995 669.954Q220.09899999999996 670.46 220.97299999999996 670.46Q221.68599999999998 670.46 222.19199999999995 670.138Q222.69799999999995 669.816 223.06599999999997 669.3330000000001Q223.43399999999997 668.85 223.72149999999996 668.3555Q224.00899999999996 667.861 224.28499999999997 667.539Q224.56099999999998 667.217 224.90599999999998 667.217Q225.41199999999998 667.217 225.96399999999997 667.539Q226.51599999999996 667.861 227.15999999999997 668.3555Q227.80399999999997 668.85 228.60899999999998 669.3330000000001Q229.41399999999996 669.816 230.43749999999994 670.1495Q231.46099999999996 670.483 232.74899999999997 670.483Q234.56599999999997 670.483 235.98049999999995 669.6089999999999Q237.39499999999995 668.735 238.22299999999996 667.2515000000001Q239.05099999999996 665.768 239.05099999999996 663.974Q239.07399999999996 663.307 238.87849999999997 663.0195Q238.68299999999996 662.732 238.33799999999997 662.732Q238.08499999999998 662.732 237.80899999999997 662.8815Q237.53299999999996 663.031 237.34899999999996 663.399Q236.86599999999996 664.756 236.00349999999997 665.3309999999999Q235.14099999999996 665.906 233.99099999999996 665.906Q232.90999999999997 665.906 231.65649999999997 665.607Q230.40299999999996 665.308 229.12649999999996 665.009Q227.84999999999997 664.71 226.74599999999995 664.71ZM260.211 664.089Q259.912 665.17 260.04999999999995 665.745Q260.188 666.32 260.855 666.32Q261.292 666.32 261.65999999999997 666.113Q262.02799999999996 665.906 262.488 665.561Q262.83299999999997 665.308 263.109 665.2275Q263.385 665.147 263.592 665.262Q263.914 665.423 263.9715 665.8715Q264.029 666.32 263.73 667.079Q263.109 668.505 261.591 669.4825000000001Q260.073 670.46 258.118 670.46Q256.945 670.46 256.2665 669.7470000000001Q255.588 669.034 255.588 667.631Q255.588 667.079 255.6685 666.458Q255.749 665.837 255.9445 664.9515Q256.14 664.066 256.5195 662.7435Q256.899 661.421 257.474 659.443L257.865 660.639Q256.347 663.928 254.58749999999998 666.113Q252.82799999999997 668.298 250.88449999999997 669.379Q248.94099999999997 670.46 246.825 670.46Q244.571 670.46 243.283 668.9075Q241.99499999999998 667.355 242.271 664.02Q242.386 661.697 243.24849999999998 659.4545Q244.111 657.212 245.56 655.2339999999999Q247.009 653.256 248.964 651.761Q250.91899999999998 650.266 253.25349999999997 649.4035Q255.588 648.541 258.164 648.541Q260.441 648.541 261.82099999999997 648.863Q263.20099999999996 649.185 263.822 649.7829999999999Q264.443 650.381 264.397 651.209Q264.328 651.853 264.006 652.267Q263.68399999999997 652.681 263.3275 653.0835Q262.971 653.486 262.81 654.084ZM247.21599999999998 663.399Q247.05499999999998 665.446 247.61849999999998 666.274Q248.182 667.102 249.23999999999998 667.102Q250.344 667.102 251.58599999999998 666.182Q252.82799999999997 665.262 254.04699999999997 663.721Q255.266 662.18 256.27799999999996 660.3399999999999Q257.28999999999996 658.5 257.93399999999997 656.6485Q258.578 654.797 258.66999999999996 653.233Q258.739 652.29 258.256 651.8299999999999Q257.77299999999997 651.37 256.853 651.37Q255.611 651.37 254.29999999999998 652.037Q252.98899999999998 652.704 251.7815 653.8885Q250.57399999999998 655.073 249.58499999999998 656.6025Q248.59599999999998 658.132 247.97499999999997 659.88Q247.35399999999998 661.628 247.21599999999998 663.399ZM291.008 661.26 291.58299999999997 661.72Q290.203 664.549 288.48949999999996 666.5039999999999Q286.77599999999995 668.459 284.86699999999996 669.4594999999999Q282.95799999999997 670.46 280.957 670.46Q278.657 670.46 277.31149999999997 668.896Q275.96599999999995 667.332 276.24199999999996 664.158Q276.38 661.858 277.231 659.5925Q278.082 657.327 279.5425 655.3375Q281.003 653.348 282.981 651.8185Q284.959 650.289 287.3395 649.4035Q289.71999999999997 648.518 292.457 648.518Q294.75699999999995 648.518 296.14849999999996 648.863Q297.53999999999996 649.208 298.1495 649.8405Q298.75899999999996 650.473 298.69 651.324Q298.621 651.991 298.299 652.428Q297.977 652.865 297.6205 653.325Q297.26399999999995 653.785 297.08 654.475L291.35299999999995 675.796Q291.09999999999997 676.716 291.192 677.36Q291.284 678.004 291.83599999999996 678.257L293.101 678.648Q293.515 678.809 293.75649999999996 679.062Q293.998 679.315 293.998 679.637Q293.998 680.35 293.5955 680.6835000000001Q293.193 681.017 292.457 681.04L283.234 681.27Q282.429 681.293 281.96899999999994 680.9825000000001Q281.50899999999996 680.672 281.50899999999996 680.051Q281.50899999999996 679.591 281.923 679.177Q282.337 678.763 283.16499999999996 678.602Q284.2 678.418 284.86699999999996 678.142Q285.534 677.866 285.9135 677.4404999999999Q286.29299999999995 677.015 286.477 676.394ZM281.279 663.33Q281.118 665.216 281.6815 666.09Q282.245 666.964 283.28 666.964Q284.476 666.964 285.764 666.1705Q287.05199999999996 665.377 288.28249999999997 664.0084999999999Q289.513 662.64 290.51349999999996 660.8805Q291.51399999999995 659.121 292.135 657.189Q292.756 655.257 292.825 653.371Q292.894 652.359 292.43399999999997 651.83Q291.974 651.301 291.008 651.301Q289.65099999999995 651.301 288.30549999999994 651.9565Q286.96 652.612 285.75249999999994 653.7735Q284.54499999999996 654.935 283.57899999999995 656.4645Q282.613 657.994 282.015 659.7535Q281.417 661.513 281.279 663.33ZM322.81699999999995 665.446Q323.18499999999995 665.653 323.2194999999999 666.1935000000001Q323.25399999999996 666.734 322.84 667.332Q321.943 668.735 320.264 669.6089999999999Q318.585 670.483 316.883 670.483Q315.457 670.483 314.74399999999997 669.885Q314.03099999999995 669.287 314.03099999999995 668.183Q314.03099999999995 667.516 314.3185 666.665Q314.606 665.814 315.1005 664.6065Q315.59499999999997 663.399 316.2505 661.697Q316.90599999999995 659.995 317.64199999999994 657.603L318.51599999999996 657.764Q317.044 661.352 315.31899999999996 663.79Q313.594 666.228 311.777 667.7Q309.96 669.172 308.2005 669.8275Q306.441 670.483 304.9 670.483Q303.05999999999995 670.483 302.31249999999994 669.586Q301.56499999999994 668.689 301.71449999999993 667.0329999999999Q301.864 665.377 302.69199999999995 663.146L305.429 655.602Q305.981 654.153 305.90049999999997 653.463Q305.82 652.773 305.08399999999995 652.773Q304.693 652.773 304.3365 652.9110000000001Q303.97999999999996 653.049 303.474 653.44Q303.106 653.716 302.83 653.8195000000001Q302.554 653.923 302.255 653.716Q301.933 653.509 301.90999999999997 653.0029999999999Q301.88699999999994 652.497 302.23199999999997 651.83Q303.01399999999995 650.427 304.55499999999995 649.5185Q306.09599999999995 648.61 307.89 648.61Q309.45399999999995 648.61 310.21299999999997 649.2885Q310.972 649.967 310.995 651.255Q311.018 652.543 310.35099999999994 654.429L307.568 662.41Q306.80899999999997 664.595 307.05049999999994 665.538Q307.292 666.481 308.58 666.481Q309.56899999999996 666.481 310.7535 665.86Q311.938 665.239 313.134 664.0775000000001Q314.33 662.916 315.365 661.2715000000001Q316.4 659.627 317.09 657.557Q317.527 656.246 317.78 655.487Q318.03299999999996 654.728 318.125 654.2909999999999Q318.217 653.854 318.217 653.509Q318.217 652.957 318.01 652.3475000000001Q317.803 651.738 317.803 651.002Q317.803 649.898 318.92999999999995 649.254Q320.05699999999996 648.61 321.91999999999996 648.61Q323.46099999999996 648.61 323.8175 649.898Q324.174 651.186 323.18499999999995 653.647L319.551 663.284Q318.81499999999994 665.124 318.89549999999997 665.8255Q318.976 666.527 319.758 666.527Q320.10299999999995 666.527 320.5055 666.3545Q320.90799999999996 666.182 321.46 665.768Q321.897 665.492 322.21899999999994 665.3885Q322.54099999999994 665.285 322.81699999999995 665.446ZM329.53299999999996 660.363Q329.53299999999996 660.363 330.33799999999997 660.0755Q331.143 659.788 332.477 659.2935Q333.811 658.799 335.375 658.2239999999999Q336.93899999999996 657.649 338.4915 657.0625Q340.044 656.476 341.263 655.97L340.78 656.683Q340.98699999999997 656.108 341.07899999999995 655.4639999999999Q341.171 654.82 341.171 654.015Q341.171 652.704 340.5155 651.9335Q339.85999999999996 651.163 338.68699999999995 651.163Q337.62899999999996 651.163 336.50199999999995 651.9795Q335.37499999999994 652.796 334.38599999999997 654.1990000000001Q333.397 655.602 332.753 657.396Q332.109 659.19 332.03999999999996 661.168Q331.902 664.273 333.13249999999994 665.7909999999999Q334.36299999999994 667.309 336.525 667.309Q337.83599999999996 667.309 339.05499999999995 666.826Q340.27399999999994 666.343 341.29749999999996 665.423Q342.32099999999997 664.503 342.98799999999994 663.146Q343.448 662.548 343.77 662.318Q344.092 662.088 344.52899999999994 662.088Q344.96599999999995 662.111 345.173 662.456Q345.38 662.801 345.35699999999997 663.33Q345.311 664.986 344.0 666.6305Q342.68899999999996 668.275 340.26249999999993 669.3789999999999Q337.83599999999996 670.483 334.47799999999995 670.483Q331.902 670.483 330.2115 669.5055Q328.52099999999996 668.528 327.7505 666.7685Q326.97999999999996 665.009 327.07199999999995 662.663Q327.21 659.857 328.25649999999996 657.327Q329.30299999999994 654.797 331.0854999999999 652.8305Q332.86799999999994 650.864 335.145 649.7255Q337.42199999999997 648.587 339.998 648.587Q341.746 648.587 342.89599999999996 649.208Q344.04599999999994 649.829 344.6785 650.9214999999999Q345.311 652.014 345.49499999999995 653.417Q345.54099999999994 653.739 345.71349999999995 653.969Q345.88599999999997 654.199 346.116 654.222Q346.438 654.222 346.65649999999994 654.4404999999999Q346.87499999999994 654.659 346.89799999999997 655.096Q346.89799999999997 655.625 346.553 656.039Q346.20799999999997 656.453 345.35699999999997 656.706Q344.092 657.143 342.45899999999995 657.7295Q340.82599999999996 658.316 339.06649999999996 658.9255Q337.30699999999996 659.535 335.65099999999995 660.1215Q333.99499999999995 660.708 332.66099999999994 661.168Q331.32699999999994 661.628 330.53349999999995 661.904Q329.73999999999995 662.18 329.73999999999995 662.18ZM375.924 664.089Q375.62499999999994 665.17 375.7629999999999 665.745Q375.90099999999995 666.32 376.568 666.32Q377.00499999999994 666.32 377.37299999999993 666.113Q377.74099999999993 665.906 378.20099999999996 665.561Q378.54599999999994 665.308 378.82199999999995 665.2275Q379.09799999999996 665.147 379.30499999999995 665.262Q379.62699999999995 665.423 379.68449999999996 665.8715Q379.74199999999996 666.32 379.443 667.079Q378.82199999999995 668.505 377.304 669.4825000000001Q375.78599999999994 670.46 373.83099999999996 670.46Q372.65799999999996 670.46 371.9794999999999 669.7470000000001Q371.30099999999993 669.034 371.30099999999993 667.631Q371.30099999999993 667.079 371.38149999999996 666.458Q371.46199999999993 665.837 371.6574999999999 664.9515Q371.85299999999995 664.066 372.23249999999996 662.7435Q372.61199999999997 661.421 373.18699999999995 659.443L373.578 660.639Q372.05999999999995 663.928 370.30049999999994 666.113Q368.54099999999994 668.298 366.59749999999997 669.379Q364.65399999999994 670.46 362.53799999999995 670.46Q360.28399999999993 670.46 358.996 668.9075Q357.70799999999997 667.355 357.984 664.02Q358.09899999999993 661.697 358.96149999999994 659.4545Q359.82399999999996 657.212 361.27299999999997 655.2339999999999Q362.722 653.256 364.67699999999996 651.761Q366.63199999999995 650.266 368.96649999999994 649.4035Q371.30099999999993 648.541 373.87699999999995 648.541Q376.15399999999994 648.541 377.53399999999993 648.863Q378.91399999999993 649.185 379.53499999999997 649.7829999999999Q380.15599999999995 650.381 380.10999999999996 651.209Q380.04099999999994 651.853 379.71899999999994 652.267Q379.39699999999993 652.681 379.04049999999995 653.0835Q378.68399999999997 653.486 378.52299999999997 654.084ZM362.929 663.399Q362.768 665.446 363.3315 666.274Q363.895 667.102 364.953 667.102Q366.05699999999996 667.102 367.299 666.182Q368.54099999999994 665.262 369.75999999999993 663.721Q370.9789999999999 662.18 371.99099999999993 660.3399999999999Q373.00299999999993 658.5 373.64699999999993 656.6485Q374.29099999999994 654.797 374.3829999999999 653.233Q374.45199999999994 652.29 373.96899999999994 651.8299999999999Q373.48599999999993 651.37 372.566 651.37Q371.32399999999996 651.37 370.0129999999999 652.037Q368.70199999999994 652.704 367.49449999999996 653.8885Q366.287 655.073 365.298 656.6025Q364.30899999999997 658.132 363.688 659.88Q363.06699999999995 661.628 362.929 663.399ZM389.70099999999996 644.125Q390.276 642.193 390.1725 641.5374999999999Q390.06899999999996 640.882 389.33299999999997 640.882Q388.965 640.882 388.597 641.0429999999999Q388.229 641.204 387.7 641.549Q387.24 641.848 386.9065 641.94Q386.573 642.032 386.32 641.871Q385.952 641.664 385.9175 641.1465000000001Q385.883 640.629 386.32 639.985Q386.849 639.157 387.8035 638.4670000000001Q388.758 637.777 389.91949999999997 637.34Q391.08099999999996 636.903 392.25399999999996 636.903Q394.23199999999997 636.903 394.9795 638.1565Q395.727 639.41 394.945 641.986L390.06899999999996 657.902L389.37899999999996 657.81Q390.18399999999997 655.855 391.3455 654.1875Q392.507 652.52 393.933 651.2665Q395.359 650.013 396.99199999999996 649.3230000000001Q398.625 648.633 400.34999999999997 648.633Q402.029 648.633 403.21349999999995 649.346Q404.39799999999997 650.059 405.019 651.4159999999999Q405.64 652.773 405.57099999999997 654.705Q405.479 658.086 404.32899999999995 660.961Q403.179 663.836 401.293 665.9635000000001Q399.407 668.091 397.10699999999997 669.264Q394.80699999999996 670.437 392.41499999999996 670.437Q389.793 670.437 388.2635 669.0685000000001Q386.734 667.7 386.757 664.825L388.091 665.676L386.02099999999996 669.172Q385.722 669.54 385.2965 669.816Q384.871 670.092 384.296 670.092Q383.698 670.092 383.307 669.77Q382.916 669.448 382.87 668.643Q382.824 667.838 383.238 666.389ZM397.981 651.577Q396.854 651.577 395.6235 652.3820000000001Q394.393 653.187 393.24299999999994 654.5554999999999Q392.09299999999996 655.924 391.173 657.6030000000001Q390.253 659.282 389.701 661.0875000000001Q389.149 662.893 389.126 664.549Q389.08 666.251 389.8275 667.056Q390.575 667.861 392.001 667.861Q393.082 667.861 394.26649999999995 667.2515000000001Q395.45099999999996 666.642 396.5435 665.5035Q397.63599999999997 664.365 398.533 662.8125Q399.43 661.26 399.9935 659.351Q400.55699999999996 657.442 400.626 655.28Q400.67199999999997 653.923 400.33849999999995 653.1065Q400.005 652.29 399.384 651.9335Q398.763 651.577 397.981 651.577ZM409.31999999999994 653.739Q408.95199999999994 653.67 408.7104999999999 653.2674999999999Q408.46899999999994 652.865 408.74499999999995 652.221Q409.18199999999996 651.278 410.09049999999996 650.4385Q410.99899999999997 649.599 412.2295 649.0815Q413.46 648.564 414.84 648.564Q416.15099999999995 648.564 416.80649999999997 649.208Q417.462 649.852 417.462 650.956Q417.462 651.945 417.07099999999997 653.3135Q416.67999999999995 654.682 416.12799999999993 656.177Q415.57599999999996 657.672 415.116 659.075Q414.65599999999995 660.478 414.518 661.536L413.782 661.375Q414.587 658.569 415.7255 656.2345Q416.864 653.9 418.221 652.198Q419.578 650.496 421.08449999999993 649.553Q422.59099999999995 648.61 424.155 648.61Q425.83399999999995 648.61 426.731 649.6565Q427.628 650.703 427.628 652.474Q427.628 653.808 427.15649999999994 654.797Q426.68499999999995 655.786 425.92599999999993 656.3264999999999Q425.167 656.867 424.29299999999995 656.867Q423.465 656.867 423.10849999999994 656.4300000000001Q422.75199999999995 655.993 422.75199999999995 655.487Q422.75199999999995 655.004 422.90149999999994 654.5095Q423.051 654.015 423.051 653.394Q423.051 652.842 422.82099999999997 652.5084999999999Q422.59099999999995 652.175 422.085 652.175Q421.04999999999995 652.175 419.78499999999997 653.3019999999999Q418.52 654.429 417.32399999999996 656.4185Q416.128 658.408 415.25399999999996 661.076Q414.65599999999995 662.824 414.44899999999996 663.8475Q414.24199999999996 664.871 414.24199999999996 665.653Q414.24199999999996 666.182 414.44899999999996 666.6075000000001Q414.65599999999995 667.033 414.87449999999995 667.3895Q415.09299999999996 667.746 415.09299999999996 668.114Q415.09299999999996 668.804 414.495 669.333Q413.897 669.862 412.8735 670.1610000000001Q411.84999999999997 670.46 410.539 670.46Q409.29699999999997 670.46 408.768 669.8389999999999Q408.239 669.218 408.3425 668.0105Q408.44599999999997 666.803 409.13599999999997 665.032L412.30999999999995 656.062Q412.95399999999995 654.268 412.90799999999996 653.4055000000001Q412.86199999999997 652.543 412.01099999999997 652.543Q411.66599999999994 652.543 411.30949999999996 652.704Q410.953 652.865 410.46999999999997 653.256Q410.171 653.509 409.88349999999997 653.6585Q409.59599999999995 653.808 409.31999999999994 653.739ZM430.549 660.363Q430.549 660.363 431.354 660.0755Q432.159 659.788 433.493 659.2935Q434.827 658.799 436.39099999999996 658.2239999999999Q437.955 657.649 439.5075 657.0625Q441.06 656.476 442.279 655.97L441.796 656.683Q442.003 656.108 442.095 655.4639999999999Q442.187 654.82 442.187 654.015Q442.187 652.704 441.5315 651.9335Q440.876 651.163 439.703 651.163Q438.645 651.163 437.518 651.9795Q436.39099999999996 652.796 435.402 654.1990000000001Q434.413 655.602 433.769 657.396Q433.125 659.19 433.056 661.168Q432.918 664.273 434.1485 665.7909999999999Q435.37899999999996 667.309 437.541 667.309Q438.852 667.309 440.07099999999997 666.826Q441.28999999999996 666.343 442.3135 665.423Q443.337 664.503 444.00399999999996 663.146Q444.464 662.548 444.786 662.318Q445.108 662.088 445.54499999999996 662.088Q445.98199999999997 662.111 446.18899999999996 662.456Q446.39599999999996 662.801 446.373 663.33Q446.327 664.986 445.01599999999996 666.6305Q443.705 668.275 441.2785 669.3789999999999Q438.852 670.483 435.49399999999997 670.483Q432.918 670.483 431.22749999999996 669.5055Q429.537 668.528 428.76649999999995 666.7685Q427.996 665.009 428.08799999999997 662.663Q428.226 659.857 429.2725 657.327Q430.31899999999996 654.797 432.1015 652.8305Q433.88399999999996 650.864 436.16099999999994 649.7255Q438.438 648.587 441.014 648.587Q442.762 648.587 443.91200000000003 649.208Q445.062 649.829 445.6945 650.9214999999999Q446.327 652.014 446.51099999999997 653.417Q446.55699999999996 653.739 446.7295 653.969Q446.902 654.199 447.132 654.222Q447.454 654.222 447.6725 654.4404999999999Q447.89099999999996 654.659 447.914 655.096Q447.914 655.625 447.56899999999996 656.039Q447.224 656.453 446.373 656.706Q445.108 657.143 443.475 657.7295Q441.842 658.316 440.0825 658.9255Q438.323 659.535 436.667 660.1215Q435.01099999999997 660.708 433.67699999999996 661.168Q432.34299999999996 661.628 431.54949999999997 661.904Q430.756 662.18 430.756 662.18ZM470.72999999999996 648.173 462.979 675.566Q462.772 676.348 462.841 677.015Q462.90999999999997 677.682 463.876 677.866L465.21 678.119Q465.9 678.257 466.1645 678.602Q466.429 678.947 466.429 679.338Q466.429 679.959 465.9805 680.3499999999999Q465.532 680.741 464.796 680.764L456.03299999999996 680.948Q455.481 680.971 455.07849999999996 680.6605Q454.676 680.35 454.676 679.729Q454.676 679.315 454.975 678.9125Q455.274 678.51 456.01 678.165Q456.654 677.958 457.05649999999997 677.682Q457.45899999999995 677.406 457.68899999999996 677.0035Q457.919 676.601 458.10299999999995 676.026L466.429 647.368Q466.56699999999995 646.8389999999999 466.78549999999996 646.4135Q467.00399999999996 645.988 467.28 645.6545000000001Q467.556 645.321 467.90099999999995 645.1025Q468.246 644.884 468.6485 644.769Q469.051 644.654 469.51099999999997 644.654Q470.61499999999995 644.654 470.9025 645.5625Q471.19 646.471 470.72999999999996 648.173ZM462.35799999999995 655.004Q461.82899999999995 655.441 461.2885 655.4985Q460.748 655.556 460.38 655.257Q459.96599999999995 654.912 460.15 654.268Q460.33399999999995 653.624 460.955 653.026Q462.565 651.439 464.4165 650.4269999999999Q466.268 649.415 468.3495 648.9435Q470.431 648.472 472.68499999999995 648.541Q475.55999999999995 648.61 477.54949999999997 649.9095Q479.539 651.209 480.413 653.6585Q481.287 656.108 480.804 659.719Q480.344 663.169 478.734 665.6185Q477.12399999999997 668.068 474.76649999999995 669.3215Q472.409 670.575 469.67199999999997 670.46Q467.04999999999995 670.391 465.417 669.172Q463.784 667.953 463.27799999999996 665.883L465.164 665.032Q465.66999999999996 666.205 466.567 666.8720000000001Q467.464 667.539 468.82099999999997 667.631Q470.477 667.723 471.94899999999996 666.826Q473.421 665.929 474.4905 663.9970000000001Q475.55999999999995 662.065 475.99699999999996 659.121Q476.36499999999995 656.614 475.9164999999999 654.866Q475.46799999999996 653.118 474.40999999999997 652.1635Q473.352 651.209 471.85699999999997 651.071Q469.60299999999995 650.841 467.2455 651.784Q464.888 652.727 462.35799999999995 655.004ZM505.75899999999996 665.446Q506.12699999999995 665.653 506.16149999999993 666.1935000000001Q506.19599999999997 666.734 505.782 667.332Q504.885 668.735 503.206 669.6089999999999Q501.527 670.483 499.825 670.483Q498.399 670.483 497.686 669.885Q496.97299999999996 669.287 496.97299999999996 668.183Q496.97299999999996 667.516 497.2605 666.665Q497.548 665.814 498.0425 664.6065Q498.537 663.399 499.1925 661.697Q499.84799999999996 659.995 500.58399999999995 657.603L501.45799999999997 657.764Q499.986 661.352 498.26099999999997 663.79Q496.536 666.228 494.719 667.7Q492.902 669.172 491.1425 669.8275Q489.383 670.483 487.842 670.483Q486.00199999999995 670.483 485.25449999999995 669.586Q484.50699999999995 668.689 484.65649999999994 667.0329999999999Q484.806 665.377 485.63399999999996 663.146L488.371 655.602Q488.923 654.153 488.8425 653.463Q488.762 652.773 488.02599999999995 652.773Q487.635 652.773 487.2785 652.9110000000001Q486.92199999999997 653.049 486.416 653.44Q486.048 653.716 485.772 653.8195000000001Q485.496 653.923 485.197 653.716Q484.875 653.509 484.852 653.0029999999999Q484.82899999999995 652.497 485.174 651.83Q485.95599999999996 650.427 487.49699999999996 649.5185Q489.03799999999995 648.61 490.832 648.61Q492.39599999999996 648.61 493.155 649.2885Q493.914 649.967 493.937 651.255Q493.96 652.543 493.29299999999995 654.429L490.51 662.41Q489.751 664.595 489.99249999999995 665.538Q490.234 666.481 491.522 666.481Q492.51099999999997 666.481 493.6955 665.86Q494.88 665.239 496.076 664.0775000000001Q497.272 662.916 498.307 661.2715000000001Q499.342 659.627 500.032 657.557Q500.469 656.246 500.722 655.487Q500.97499999999997 654.728 501.067 654.2909999999999Q501.159 653.854 501.159 653.509Q501.159 652.957 500.952 652.3475000000001Q500.745 651.738 500.745 651.002Q500.745 649.898 501.87199999999996 649.254Q502.99899999999997 648.61 504.86199999999997 648.61Q506.40299999999996 648.61 506.7595 649.898Q507.116 651.186 506.12699999999995 653.647L502.493 663.284Q501.75699999999995 665.124 501.8375 665.8255Q501.918 666.527 502.7 666.527Q503.04499999999996 666.527 503.4475 666.3545Q503.84999999999997 666.182 504.402 665.768Q504.839 665.492 505.16099999999994 665.3885Q505.48299999999995 665.285 505.75899999999996 665.446ZM512.475 660.363Q512.475 660.363 513.28 660.0755Q514.0849999999999 659.788 515.4189999999999 659.2935Q516.7529999999999 658.799 518.317 658.2239999999999Q519.881 657.649 521.4335 657.0625Q522.986 656.476 524.2049999999999 655.97L523.722 656.683Q523.929 656.108 524.021 655.4639999999999Q524.1129999999999 654.82 524.1129999999999 654.015Q524.1129999999999 652.704 523.4575 651.9335Q522.802 651.163 521.629 651.163Q520.571 651.163 519.444 651.9795Q518.317 652.796 517.328 654.1990000000001Q516.3389999999999 655.602 515.6949999999999 657.396Q515.0509999999999 659.19 514.982 661.168Q514.8439999999999 664.273 516.0745 665.7909999999999Q517.305 667.309 519.467 667.309Q520.778 667.309 521.9970000000001 666.826Q523.216 666.343 524.2394999999999 665.423Q525.2629999999999 664.503 525.93 663.146Q526.39 662.548 526.712 662.318Q527.034 662.088 527.471 662.088Q527.908 662.111 528.115 662.456Q528.322 662.801 528.299 663.33Q528.2529999999999 664.986 526.942 666.6305Q525.631 668.275 523.2045 669.3789999999999Q520.778 670.483 517.42 670.483Q514.8439999999999 670.483 513.1534999999999 669.5055Q511.46299999999997 668.528 510.6925 666.7685Q509.92199999999997 665.009 510.01399999999995 662.663Q510.152 659.857 511.19849999999997 657.327Q512.245 654.797 514.0274999999999 652.8305Q515.81 650.864 518.087 649.7255Q520.3639999999999 648.587 522.9399999999999 648.587Q524.688 648.587 525.838 649.208Q526.9879999999999 649.829 527.6205 650.9214999999999Q528.2529999999999 652.014 528.437 653.417Q528.483 653.739 528.6555 653.969Q528.828 654.199 529.058 654.222Q529.38 654.222 529.5985000000001 654.4404999999999Q529.817 654.659 529.8399999999999 655.096Q529.8399999999999 655.625 529.4949999999999 656.039Q529.15 656.453 528.299 656.706Q527.034 657.143 525.4010000000001 657.7295Q523.768 658.316 522.0085 658.9255Q520.249 659.535 518.5930000000001 660.1215Q516.937 660.708 515.6030000000001 661.168Q514.269 661.628 513.4755 661.904Q512.682 662.18 512.682 662.18ZM533.6809999999999 653.739Q533.313 653.67 533.0715 653.2674999999999Q532.8299999999999 652.865 533.106 652.221Q533.543 651.278 534.4514999999999 650.4385Q535.3599999999999 649.599 536.5904999999999 649.0815Q537.8209999999999 648.564 539.2009999999999 648.564Q540.512 648.564 541.1675 649.208Q541.823 649.852 541.823 650.956Q541.823 651.945 541.432 653.3135Q541.0409999999999 654.682 540.4889999999999 656.177Q539.9369999999999 657.672 539.4769999999999 659.075Q539.0169999999999 660.478 538.8789999999999 661.536L538.1429999999999 661.375Q538.948 658.569 540.0864999999999 656.2345Q541.2249999999999 653.9 542.5819999999999 652.198Q543.939 650.496 545.4455 649.553Q546.952 648.61 548.516 648.61Q550.1949999999999 648.61 551.0919999999999 649.6565Q551.9889999999999 650.703 551.9889999999999 652.474Q551.9889999999999 653.808 551.5174999999999 654.797Q551.0459999999999 655.786 550.2869999999999 656.3264999999999Q549.5279999999999 656.867 548.654 656.867Q547.8259999999999 656.867 547.4694999999999 656.4300000000001Q547.1129999999999 655.993 547.1129999999999 655.487Q547.1129999999999 655.004 547.2624999999999 654.5095Q547.4119999999999 654.015 547.4119999999999 653.394Q547.4119999999999 652.842 547.182 652.5084999999999Q546.952 652.175 546.4459999999999 652.175Q545.411 652.175 544.146 653.3019999999999Q542.881 654.429 541.685 656.4185Q540.4889999999999 658.408 539.615 661.076Q539.0169999999999 662.824 538.81 663.8475Q538.603 664.871 538.603 665.653Q538.603 666.182 538.81 666.6075000000001Q539.0169999999999 667.033 539.2355 667.3895Q539.454 667.746 539.454 668.114Q539.454 668.804 538.856 669.333Q538.2579999999999 669.862 537.2344999999999 670.1610000000001Q536.2109999999999 670.46 534.9 670.46Q533.6579999999999 670.46 533.1289999999999 669.8389999999999Q532.5999999999999 669.218 532.7034999999998 668.0105Q532.8069999999999 666.803 533.497 665.032L536.6709999999999 656.062Q537.3149999999999 654.268 537.269 653.4055000000001Q537.223 652.543 536.372 652.543Q536.0269999999999 652.543 535.6705 652.704Q535.314 652.865 534.8309999999999 653.256Q534.5319999999999 653.509 534.2445 653.6585Q533.957 653.808 533.6809999999999 653.739ZM557.1179999999999 652.359 555.554 651.876Q555.0939999999999 651.646 554.8409999999999 651.324Q554.588 651.002 554.588 650.542Q554.588 649.967 555.0595 649.5989999999999Q555.531 649.231 556.29 649.231H557.785Q558.4979999999999 649.231 558.9465 649.0125Q559.395 648.794 559.8779999999999 648.196L561.6949999999999 645.643Q562.0169999999999 645.206 562.4195 644.953Q562.822 644.7 563.374 644.7Q563.972 644.7 564.271 645.0105000000001Q564.5699999999999 645.321 564.5699999999999 645.85Q564.5699999999999 646.264 564.4549999999999 646.8620000000001Q564.34 647.46 564.11 648.219L559.6709999999999 662.318Q558.866 664.871 559.2225 665.768Q559.579 666.665 560.752 666.665Q561.741 666.665 562.546 666.2394999999999Q563.351 665.814 564.2479999999999 664.894Q564.662 664.503 564.8805 664.388Q565.0989999999999 664.273 565.398 664.273Q565.766 664.296 565.95 664.549Q566.134 664.802 566.134 665.216Q566.088 666.021 565.3865 666.9295Q564.685 667.838 563.5005 668.6315Q562.316 669.425 560.821 669.931Q559.326 670.437 557.693 670.437Q556.014 670.437 555.0825 669.6435Q554.151 668.85 554.059 667.2860000000001Q553.967 665.722 554.749 663.445L557.348 655.257Q557.808 653.923 557.7964999999999 653.2905000000001Q557.785 652.658 557.1179999999999 652.359ZM560.959 652.29 561.879 649.346H568.365Q569.4 649.346 569.4 650.335Q569.4 651.255 568.71 651.7725Q568.02 652.29 566.87 652.29ZM586.857 664.089Q586.558 665.17 586.696 665.745Q586.8340000000001 666.32 587.501 666.32Q587.938 666.32 588.306 666.113Q588.674 665.906 589.134 665.561Q589.479 665.308 589.755 665.2275Q590.031 665.147 590.238 665.262Q590.56 665.423 590.6175 665.8715Q590.675 666.32 590.376 667.079Q589.755 668.505 588.2370000000001 669.4825000000001Q586.719 670.46 584.764 670.46Q583.591 670.46 582.9125 669.7470000000001Q582.234 669.034 582.234 667.631Q582.234 667.079 582.3145 666.458Q582.395 665.837 582.5905 664.9515Q582.7860000000001 664.066 583.1655000000001 662.7435Q583.545 661.421 584.12 659.443L584.511 660.639Q582.993 663.928 581.2335 666.113Q579.474 668.298 577.5305000000001 669.379Q575.587 670.46 573.471 670.46Q571.217 670.46 569.929 668.9075Q568.641 667.355 568.917 664.02Q569.032 661.697 569.8945 659.4545Q570.757 657.212 572.2059999999999 655.2339999999999Q573.655 653.256 575.61 651.761Q577.565 650.266 579.8995 649.4035Q582.234 648.541 584.81 648.541Q587.087 648.541 588.467 648.863Q589.847 649.185 590.4680000000001 649.7829999999999Q591.089 650.381 591.043 651.209Q590.974 651.853 590.652 652.267Q590.33 652.681 589.9735000000001 653.0835Q589.617 653.486 589.456 654.084ZM573.862 663.399Q573.701 665.446 574.2645 666.274Q574.828 667.102 575.886 667.102Q576.99 667.102 578.232 666.182Q579.474 665.262 580.693 663.721Q581.912 662.18 582.924 660.3399999999999Q583.936 658.5 584.58 656.6485Q585.224 654.797 585.316 653.233Q585.385 652.29 584.902 651.8299999999999Q584.419 651.37 583.499 651.37Q582.257 651.37 580.9459999999999 652.037Q579.635 652.704 578.4275 653.8885Q577.22 655.073 576.231 656.6025Q575.242 658.132 574.621 659.88Q574.0 661.628 573.862 663.399ZM601.4619999999999 667.999Q602.7959999999999 667.999 603.5664999999999 667.2975Q604.3369999999999 666.596 604.3369999999999 665.538Q604.3369999999999 664.917 604.0724999999999 664.3305Q603.8079999999999 663.744 603.0604999999998 663.0425Q602.3129999999999 662.341 600.91 661.375Q599.2309999999999 660.248 598.2534999999999 659.328Q597.276 658.408 596.8389999999999 657.4535000000001Q596.4019999999999 656.499 596.3789999999999 655.257Q596.3789999999999 653.417 597.4369999999999 651.9105Q598.4949999999999 650.404 600.5535 649.4955Q602.612 648.587 605.579 648.587Q607.6719999999999 648.587 609.1324999999999 649.2194999999999Q610.593 649.852 611.3634999999999 650.91Q612.1339999999999 651.968 612.1339999999999 653.256Q612.1339999999999 654.314 611.7085 654.8199999999999Q611.2829999999999 655.326 610.5239999999999 655.326Q609.9259999999999 655.326 609.4199999999998 654.9465Q608.9139999999999 654.567 608.362 653.601Q607.6949999999999 652.313 606.8095 651.6115Q605.924 650.91 604.636 650.91Q603.026 650.91 602.106 651.7725Q601.1859999999999 652.635 601.1859999999999 653.854Q601.209 654.475 601.4965 655.1075000000001Q601.7839999999999 655.74 602.52 656.499Q603.256 657.258 604.5899999999999 658.247Q606.43 659.535 607.4074999999999 660.5355Q608.3849999999999 661.536 608.7529999999999 662.4559999999999Q609.1209999999999 663.376 609.1439999999999 664.48Q609.1439999999999 666.205 608.1319999999998 667.562Q607.1199999999999 668.919 605.2109999999999 669.701Q603.3019999999999 670.483 600.588 670.483Q598.2189999999999 670.483 596.5745 669.77Q594.93 669.057 594.0905 667.9415Q593.251 666.826 593.251 665.607Q593.2739999999999 664.641 593.7109999999999 664.1005Q594.1479999999999 663.56 594.8609999999999 663.56Q595.574 663.56 596.1374999999999 663.997Q596.7009999999999 664.434 597.2299999999999 665.308Q598.0579999999999 666.78 599.116 667.3895Q600.174 667.999 601.4619999999999 667.999Z" fill="#6B4A33"/></svg>
